<?xml version="1.0" encoding="UTF-8" standalone="no"?>
<!DOCTYPE svg PUBLIC "-//W3C//DTD SVG 1.1//EN" "http://www.w3.org/Graphics/SVG/1.1/DTD/svg11.dtd">
<svg width="100%" height="100%" viewBox="0 0 425 425" version="1.1" xmlns="http://www.w3.org/2000/svg" xmlns:xlink="http://www.w3.org/1999/xlink" xml:space="preserve" xmlns:serif="http://www.serif.com/" style="fill-rule:evenodd;clip-rule:evenodd;stroke-linejoin:round;stroke-miterlimit:2;">
    <g transform="matrix(1,0,0,1,-214.398,-1284.77)">
        <g>
            <g>
                <g transform="matrix(1.00997,0,0,1.00997,-10.0465,929.025)">
                    <circle cx="432.242" cy="561.875" r="208.713" style="fill:white;"/>
                </g>
                <path d="M426.727,1284.77C543.915,1284.77 639.056,1379.91 639.056,1497.1C639.056,1614.29 543.915,1709.43 426.727,1709.43C309.539,1709.43 214.398,1614.29 214.398,1497.1C214.398,1379.91 309.539,1284.77 426.727,1284.77ZM426.727,1289.51C312.156,1289.51 219.139,1382.53 219.139,1497.1C219.139,1611.67 312.156,1704.68 426.727,1704.68C541.298,1704.68 634.315,1611.67 634.315,1497.1C634.315,1382.53 541.298,1289.51 426.727,1289.51ZM452.721,1699.47C444.208,1700.55 435.532,1701.11 426.727,1701.11C417.922,1701.11 409.246,1700.55 400.733,1699.47L400.733,1655C409.197,1656.38 417.878,1657.1 426.727,1657.1C435.576,1657.1 444.258,1656.38 452.721,1655L452.721,1699.47ZM468.328,1635.58C458.375,1638.57 447.971,1640.51 437.244,1641.29L437.587,1646.04C448.669,1645.25 459.417,1643.24 469.7,1640.15L468.328,1635.58ZM387.034,1636.14C376.774,1633.21 366.978,1629.18 357.784,1624.17L355.505,1628.36C365.004,1633.53 375.124,1637.7 385.725,1640.72L387.034,1636.14ZM616.816,1571.27C610.43,1587.6 602.002,1602.9 591.845,1616.88L553.451,1594.75C564.015,1581.07 572.41,1565.63 578.125,1548.97L616.816,1571.27ZM236.543,1571.02L275.262,1548.77C280.958,1565.45 289.334,1580.89 299.877,1594.59L261.455,1616.67C251.314,1602.68 242.906,1587.36 236.543,1571.02ZM536.438,1591.2C529.56,1599.21 521.82,1606.46 513.363,1612.81L516.225,1616.62C524.959,1610.07 532.952,1602.58 540.056,1594.31L536.438,1591.2ZM318.322,1592.7C311.354,1584.81 305.235,1576.15 300.106,1566.87L295.932,1569.18C301.229,1578.76 307.55,1587.7 314.746,1595.86L318.322,1592.7ZM569.913,1517.14C568.437,1527.76 565.806,1538.02 562.149,1547.77L566.615,1549.45C570.393,1539.37 573.112,1528.77 574.637,1517.8L569.913,1517.14ZM283.828,1519.11C282.73,1511.93 282.161,1504.58 282.161,1497.1C282.161,1493.88 282.266,1490.69 282.473,1487.52L277.714,1487.21C277.5,1490.48 277.392,1493.78 277.392,1497.1C277.392,1504.83 277.98,1512.41 279.114,1519.83L283.828,1519.11ZM558.098,1436.71C562.47,1446.2 565.844,1456.24 568.086,1466.69L572.749,1465.69C570.433,1454.89 566.946,1444.52 562.429,1434.72L558.098,1436.71ZM294.536,1438.53C298.85,1428.81 304.203,1419.66 310.454,1411.22L306.62,1408.38C300.164,1417.11 294.634,1426.56 290.178,1436.59L294.536,1438.53ZM586.286,1370.02C597.069,1383.54 606.177,1398.46 613.285,1414.47L574.862,1436.55C568.195,1420.27 558.926,1405.34 547.573,1392.27L586.286,1370.02ZM267.327,1369.82L306.012,1392.12C294.643,1405.18 285.354,1420.1 278.668,1436.36L240.273,1414.23C247.398,1398.24 256.522,1383.33 267.327,1369.82ZM504.723,1375.38C513.63,1381.11 521.87,1387.78 529.298,1395.26L532.683,1391.9C525.011,1384.18 516.501,1377.28 507.301,1371.37L504.723,1375.38ZM347.066,1376.47C355.815,1370.68 365.229,1365.81 375.168,1362.01L373.465,1357.56C363.197,1361.48 353.471,1366.51 344.433,1372.49L347.066,1376.47ZM425.732,1352.54L426.727,1352.53C437.516,1352.53 448.031,1353.71 458.148,1355.96L459.181,1351.31C449.059,1349.06 438.55,1347.84 427.771,1347.77L426.727,1347.76C426.042,1347.76 425.357,1347.77 424.674,1347.78L424.738,1352.55C425.069,1352.54 425.4,1352.54 425.732,1352.54ZM452.721,1294.73L452.721,1339.2C444.258,1337.81 435.576,1337.09 426.727,1337.09C417.878,1337.09 409.197,1337.81 400.733,1339.2L400.733,1294.73C409.246,1293.64 417.922,1293.09 426.727,1293.09C435.532,1293.09 444.208,1293.64 452.721,1294.73Z" style="fill:rgb(24,65,163);"/>
            </g>
        </g>
    </g>
</svg>
