<?xml version="1.0" encoding="UTF-8" standalone="no"?>
<!DOCTYPE svg PUBLIC "-//W3C//DTD SVG 1.1//EN" "http://www.w3.org/Graphics/SVG/1.1/DTD/svg11.dtd">
<svg width="100%" height="100%" viewBox="0 0 425 425" version="1.1" xmlns="http://www.w3.org/2000/svg" xmlns:xlink="http://www.w3.org/1999/xlink" xml:space="preserve" xmlns:serif="http://www.serif.com/" style="fill-rule:evenodd;clip-rule:evenodd;stroke-linejoin:round;stroke-miterlimit:2;">
    <g transform="matrix(1,0,0,1,-685.519,-1284.77)">
        <g>
            <g>
                <g transform="matrix(1.00997,0,0,1.00997,461.942,929.741)">
                    <circle cx="432.242" cy="561.875" r="208.713" style="fill:white;"/>
                </g>
                <g transform="matrix(1,0,0,1,178.787,952.72)">
                    <path d="M719.061,332.048C601.874,332.048 506.732,427.189 506.732,544.377C506.732,661.565 601.874,756.706 719.061,756.706C836.249,756.706 931.391,661.565 931.391,544.377C931.391,427.189 836.249,332.048 719.061,332.048ZM745.649,751.367C736.941,752.476 728.068,753.048 719.061,753.048C710.055,753.048 701.181,752.476 692.473,751.367L692.473,705.885C701.13,707.302 710.011,708.038 719.061,708.038C728.112,708.038 736.992,707.302 745.649,705.885L745.649,751.367ZM761.612,686.022C751.432,689.08 740.79,691.069 729.819,691.859L730.169,696.725C741.504,695.909 752.498,693.853 763.016,690.693L761.612,686.022ZM678.461,686.593C667.967,683.599 657.947,679.472 648.544,674.356L646.212,678.64C655.928,683.927 666.28,688.19 677.123,691.284L678.461,686.593ZM913.492,620.24C906.96,636.945 898.34,652.601 887.95,666.894L848.68,644.259C859.485,630.264 868.071,614.48 873.918,597.429L913.492,620.24ZM524.534,619.99L564.137,597.23C569.963,614.289 578.53,630.086 589.314,644.092L550.015,666.678C539.642,652.37 531.041,636.701 524.534,619.99ZM831.278,640.63C824.243,648.823 816.326,656.238 807.676,662.728L810.604,666.63C819.537,659.928 827.713,652.27 834.979,643.808L831.278,640.63ZM608.18,642.164C601.053,634.091 594.794,625.235 589.548,615.743L585.278,618.102C590.697,627.907 597.162,637.054 604.523,645.392L608.18,642.164ZM865.518,564.876C864.008,575.741 861.317,586.23 857.576,596.209L862.144,597.921C866.009,587.611 868.79,576.773 870.349,565.548L865.518,564.876ZM572.899,566.888C571.775,559.548 571.193,552.03 571.193,544.377C571.193,541.087 571.301,537.822 571.513,534.585L566.645,534.266C566.426,537.608 566.315,540.98 566.315,544.377C566.315,552.281 566.917,560.045 568.077,567.626L572.899,566.888ZM853.433,482.614C857.905,492.316 861.356,502.584 863.649,513.28L868.418,512.257C866.049,501.206 862.483,490.597 857.863,480.572L853.433,482.614ZM583.851,484.467C588.264,474.534 593.739,465.176 600.132,456.538L596.211,453.636C589.607,462.559 583.951,472.226 579.393,482.486L583.851,484.467ZM882.265,414.397C893.294,428.224 902.609,443.488 909.88,459.858L870.579,482.445C863.76,465.798 854.28,450.526 842.667,437.154L882.265,414.397ZM556.02,414.193L595.589,437.001C583.961,450.357 574.46,465.621 567.621,482.256L528.349,459.62C535.636,443.263 544.969,428.011 556.02,414.193ZM798.838,419.883C807.95,425.738 816.378,432.565 823.975,440.217L827.437,436.78C819.59,428.877 810.885,421.826 801.475,415.779L798.838,419.883ZM637.581,420.994C646.529,415.07 656.158,410.092 666.325,406.205L664.583,401.648C654.08,405.664 644.132,410.806 634.888,416.927L637.581,420.994ZM718.043,396.512L719.061,396.509C730.097,396.509 740.852,397.72 751.2,400.017L752.257,395.255C741.903,392.957 731.155,391.71 720.129,391.635L719.061,391.631C718.36,391.631 717.66,391.636 716.961,391.645L717.027,396.523C717.366,396.518 717.704,396.515 718.043,396.512ZM745.649,337.388L745.649,382.869C736.992,381.453 728.112,380.716 719.061,380.716C710.011,380.716 701.13,381.453 692.473,382.869L692.473,337.388C701.181,336.278 710.055,335.706 719.061,335.706C728.068,335.706 736.941,336.278 745.649,337.388Z" style="fill:rgb(231,158,39);"/>
                </g>
            </g>
        </g>
    </g>
</svg>
